<svg xmlns="http://www.w3.org/2000/svg" viewBox="0 0 2283.194321 494.694729" width="2283.194321" height="494.694729">
  
  <g transform="translate(-72.305679,645.194729) scale(0.100000,-0.100000)" fill="#FFFFFF" stroke="none">
    
fill=&#34;#000000&#34; stroke=&#34;none&#34;&gt;
<path d="M1926 6434 c-14 -13 -16 -49 -16 -235 0 -121 -4 -228 -9 -238 -6 -10&#xA;-42 -38 -81 -62 -217 -135 -485 -378 -626 -569 -130 -176 -238 -366 -299 -525&#xA;-14 -38 -33 -86 -40 -105 -28 -70 -64 -196 -76 -265 -6 -38 -18 -92 -25 -119&#xA;-8 -27 -14 -72 -14 -100 0 -27 -5 -98 -12 -156 -12 -108 -2 -297 23 -430 5&#xA;-30 16 -93 25 -140 21 -121 89 -325 165 -494 40 -90 157 -285 235 -391 83&#xA;-113 311 -351 410 -427 54 -41 247 -173 300 -204 17 -10 19 -29 22 -210 1&#xA;-109 5 -209 7 -221 8 -34 40 -38 240 -35 145 2 182 5 195 17 11 12 16 46 20&#xA;128 6 128 -5 119 115 93 212 -47 233 -49 525 -49 291 0 318 3 515 48 39 9 90&#xA;22 115 30 25 8 74 24 110 35 81 26 171 61 188 73 23 17 12 55 -29 104 -22 26&#xA;-63 76 -92 110 -29 34 -62 65 -74 69 -13 3 -62 -8 -125 -29 -173 -58 -270 -77&#xA;-450 -88 -286 -17 -495 6 -723 79 -172 55 -450 211 -610 342 -196 161 -411&#xA;443 -509 670 -125 290 -171 513 -171 825 0 242 24 399 93 605 105 318 237 528&#xA;489 778 79 78 147 142 152 142 18 0 21 -211 21 -1545 0 -1098 3 -1394 13&#xA;-1407 46 -56 368 -258 412 -258 8 0 19 9 25 19 7 13 10 283 10 806 0 468 4&#xA;785 9 783 9 -3 228 -248 391 -437 122 -142 255 -294 420 -481 85 -96 182 -207&#xA;215 -245 33 -39 96 -111 140 -161 44 -49 130 -148 191 -220 197 -228 444 -508&#xA;692 -784 l50 -55 291 1 c312 2 332 5 309 48 -6 11 -45 61 -87 109 -42 49 -96&#xA;113 -121 142 -25 29 -112 131 -195 225 -82 95 -156 181 -164 192 -13 18 -7 27&#xA;92 126 159 161 307 353 307 400 0 23 -34 49 -163 126 -43 25 -86 46 -96 46&#xA;-21 0 -51 -32 -123 -130 -60 -82 -219 -255 -250 -271 -15 -8 -24 -4 -50 23&#xA;-47 50 -447 506 -682 777 -44 52 -121 140 -171 196 -49 56 -142 162 -205 235&#xA;-63 73 -157 181 -208 239 -52 58 -96 112 -99 118 -6 15 32 69 166 238 121 153&#xA;288 369 381 491 25 33 62 79 82 104 35 44 62 77 328 415 69 87 141 176 160&#xA;198 l35 38 64 -41 c203 -131 385 -316 534 -541 32 -48 65 -93 73 -100 27 -23&#xA;79 -12 166 32 91 48 128 78 128 106 0 23 -87 168 -165 275 -68 94 -320 356&#xA;-410 427 -166 131 -317 222 -475 286 -36 14 -78 32 -95 39 -67 30 -263 86&#xA;-390 112 -173 35 -504 50 -690 30 -90 -9 -320 -53 -344 -65 -36 -19 -41 -3&#xA;-41 133 0 116 -2 135 -18 149 -27 25 -402 25 -426 1z m1424 -586 c170 -30 360&#xA;-93 360 -119 0 -6 -12 -26 -27 -44 -16 -17 -55 -67 -88 -110 -33 -44 -74 -95&#xA;-91 -114 -16 -20 -59 -74 -94 -121 -92 -122 -121 -160 -155 -201 -16 -20 -66&#xA;-82 -110 -138 -44 -57 -107 -137 -141 -179 -33 -43 -121 -153 -196 -247 -367&#xA;-464 -421 -530 -429 -533 -5 -2 -9 366 -9 851 0 717 2 856 14 866 19 16 184&#xA;66 286 86 186 38 477 39 680 3z"></path>
<path d="M4288 6440 c-17 -11 -113 -124 -191 -228 -67 -89 -64 -105 33 -157&#xA;42 -22 87 -48 100 -57 50 -36 72 -25 147 70 287 366 272 344 254 366 -11 13&#xA;-39 16 -170 16 -86 0 -163 -5 -173 -10z"></path>
<path d="M14105 5058 c-363 -36 -682 -259 -830 -582 -117 -253 -134 -534 -49&#xA;-799 52 -162 109 -253 233 -378 155 -155 303 -234 546 -291 89 -20 125 -23&#xA;315 -23 206 0 219 1 316 28 126 36 159 55 168 97 8 41 8 94 0 154 -9 62 -35&#xA;74 -107 51 -168 -55 -455 -72 -593 -36 -119 32 -207 85 -309 186 -74 73 -100&#xA;107 -137 180 -137 270 -143 543 -19 790 105 209 330 337 591 336 73 0 435 -34&#xA;496 -47 52 -10 75 19 81 103 7 96 -2 139 -34 160 -36 24 -166 51 -328 68 -154&#xA;16 -206 17 -340 3z"></path>
<path d="M22821 5045 c-18 -8 -59 -15 -91 -15 -61 0 -109 -13 -122 -33 -4 -7&#xA;-8 -445 -8 -974 0 -950 0 -963 20 -983 18 -18 33 -20 138 -20 86 0 123 4 138&#xA;14 19 14 19 36 19 1011 0 874 -2 997 -15 1005 -20 13 -39 12 -79 -5z"></path>
<path d="M16820 5041 c-8 -5 -54 -12 -102 -16 -47 -4 -95 -13 -105 -20 -17&#xA;-13 -18 -57 -23 -932 l-5 -919 -32 -41 c-38 -47 -41 -68 -14 -83 26 -13 396&#xA;-13 422 0 24 14 24 41 -1 72 -46 59 -45 35 -50 1006 -4 806 -7 924 -20 932&#xA;-19 12 -50 12 -70 1z"></path>
<path d="M23462 5039 c-13 -5 -62 -12 -108 -16 -70 -5 -88 -10 -99 -27 -13&#xA;-17 -15 -158 -15 -978 0 -945 0 -958 20 -978 18 -18 33 -20 138 -20 108 0 121&#xA;2 138 21 18 20 19 51 19 993 0 773 -3 976 -13 994 -13 23 -41 27 -80 11z"></path>
<path d="M18435 5030 c-16 -4 -59 -8 -95 -9 -117 -2 -110 21 -110 -356 0 -220&#xA;-3 -326 -11 -330 -6 -4 -20 2 -32 13 -35 32 -146 83 -222 103 -86 23 -263 25&#xA;-350 5 -249 -59 -453 -262 -527 -523 -18 -62 -22 -104 -22 -208 0 -152 15&#xA;-221 73 -340 98 -198 255 -322 476 -375 131 -32 341 -32 443 0 93 28 102 41&#xA;102 147 0 79 -1 84 -24 95 -18 8 -37 8 -69 -1 -89 -22 -207 -25 -282 -6 -91&#xA;23 -137 47 -198 103 -63 59 -110 131 -144 224 -25 65 -28 87 -28 198 0 114 2&#xA;131 29 199 41 105 128 197 224 235 65 26 78 28 173 24 85 -4 115 -10 162 -32&#xA;69 -31 151 -109 177 -169 45 -102 50 -146 50 -463 0 -327 2 -342 58 -431 15&#xA;-24 49 -58 75 -75 47 -30 54 -32 175 -36 120 -4 129 -3 155 18 27 21 28 24 25&#xA;108 -3 85 -3 87 -33 100 -93 44 -101 50 -122 93 l-22 44 -1 805 c0 712 -2 808&#xA;-16 828 -16 23 -36 25 -89 12z"></path>
<path d="M6420 5022 c-111 -5 -100 105 -100 -997 0 -814 2 -964 14 -981 12&#xA;-16 29 -19 126 -22 136 -5 176 2 192 31 10 17 14 144 18 512 l5 490 146 -195&#xA;c81 -107 171 -226 201 -265 29 -38 98 -128 153 -200 212 -279 274 -345 343&#xA;-365 20 -6 87 -14 149 -17 94 -5 116 -3 138 11 42 27 51 10 -162 291 -50 66&#xA;-109 143 -130 170 -22 28 -76 100 -122 160 -45 61 -94 126 -109 145 -108 140&#xA;-232 317 -232 333 0 19 30 60 185 257 50 63 138 176 195 250 58 74 127 162&#xA;153 195 54 67 107 145 107 156 0 4 -7 15 -16 23 -12 13 -39 16 -124 16 -60 0&#xA;-120 -4 -133 -9 -32 -12 -72 -54 -143 -147 -33 -43 -84 -110 -114 -149 -205&#xA;-266 -416 -548 -458 -610 l-27 -40 -5 450 c-5 477 -7 490 -53 499 -37 8 -128&#xA;11 -197 8z"></path>
<path d="M15475 4470 c-166 -8 -165 -7 -165 -130 0 -132 3 -136 124 -124 50 5&#xA;152 9 226 9 130 0 137 -1 182 -28 54 -33 78 -66 85 -117 7 -48 -18 -91 -66&#xA;-118 -42 -23 -180 -61 -336 -93 -246 -49 -363 -111 -430 -225 -95 -162 -66&#xA;-355 77 -510 95 -103 216 -146 408 -147 147 0 275 23 303 55 24 29 24 147 -1&#xA;178 -17 21 -20 21 -80 10 -120 -24 -262 0 -344 57 -38 26 -78 106 -78 156 0&#xA;40 20 96 46 126 28 34 129 85 189 95 74 13 210 47 252 63 23 8 48 13 56 10 10&#xA;-4 13 -57 15 -253 3 -213 6 -254 21 -289 47 -105 133 -160 280 -177 120 -14&#xA;127 -11 195 88 36 51 46 74 44 97 -3 29 -7 32 -59 42 -66 14 -119 44 -145 83&#xA;-16 24 -19 64 -24 422 -6 351 -9 400 -25 440 -91 223 -303 303 -750 280z"></path>
<path d="M21625 4470 c-38 -4 -90 -13 -115 -19 -282 -67 -492 -307 -546 -626&#xA;-16 -97 -16 -103 4 -209 60 -310 267 -519 597 -602 100 -25 127 -28 285 -27&#xA;155 0 186 3 273 26 134 34 137 38 137 152 0 116 -7 125 -83 101 -211 -65 -421&#xA;-58 -583 20 -61 30 -150 114 -187 176 -113 193 -103 524 20 667 48 57 102 89&#xA;184 112 86 24 98 24 195 -1 91 -24 144 -57 185 -117 34 -49 62 -121 55 -140&#xA;-4 -10 -73 -13 -324 -13 -285 0 -321 -2 -333 -17 -9 -11 -14 -43 -14 -98 0&#xA;-55 5 -87 14 -98 12 -15 60 -17 507 -17 446 0 494 2 509 17 14 14 16 30 10&#xA;107 -12 170 -78 310 -198 422 -156 144 -368 210 -592 184z"></path>
<path d="M8388 4456 c-162 -37 -327 -140 -413 -257 -55 -74 -121 -209 -140&#xA;-284 -20 -80 -20 -291 0 -370 9 -33 32 -91 51 -130 145 -293 474 -451 889&#xA;-429 130 8 289 45 323 76 19 19 22 32 22 98 0 48 -5 83 -13 94 -15 21 -30 20&#xA;-167 -13 -161 -39 -363 -20 -492 45 -70 36 -159 123 -196 192 -93 175 -98 432&#xA;-12 602 19 37 91 109 130 130 34 18 156 50 191 50 48 0 149 -29 195 -56 53&#xA;-30 91 -75 121 -142 43 -99 68 -91 -294 -92 -279 0 -319 -2 -335 -17 -15 -13&#xA;-18 -32 -18 -104 0 -77 2 -90 19 -99 13 -6 189 -10 505 -10 443 0 486 1 502&#xA;17 14 15 16 31 11 113 -14 266 -209 500 -479 577 -73 20 -326 26 -400 9z"></path>
<path d="M11190 4455 c-191 -36 -332 -144 -375 -285 -26 -86 -18 -211 18 -272&#xA;63 -109 153 -161 492 -287 193 -71 248 -107 266 -174 22 -81 -16 -149 -109&#xA;-194 -56 -28 -60 -28 -237 -27 -150 1 -194 5 -262 22 -151 40 -173 31 -173&#xA;-75 0 -94 23 -114 170 -153 123 -32 366 -32 495 -1 154 38 262 96 337 179 72&#xA;80 112 194 106 302 -9 170 -142 308 -374 388 -322 111 -355 125 -394 167 -20&#xA;21 -25 36 -24 73 1 40 6 50 37 78 60 51 144 68 296 60 69 -3 149 -9 177 -12&#xA;70 -9 84 7 84 95 0 39 -5 75 -13 85 -23 31 -119 46 -292 44 -88 0 -189 -6&#xA;-225 -13z"></path>
<path d="M9345 4443 c-27 -2 -55 -9 -62 -15 -15 -12 -17 -69 -4 -83 4 -6 30&#xA;-57 56 -115 147 -325 195 -432 224 -495 18 -38 41 -88 51 -110 10 -22 39 -85&#xA;65 -140 26 -55 65 -140 88 -190 43 -95 62 -127 115 -188 17 -20 32 -43 32 -51&#xA;0 -31 -65 -175 -108 -240 -83 -123 -134 -147 -337 -155 l-140 -6 -52 -70&#xA;c-104 -140 -100 -150 73 -167 361 -33 600 88 743 379 59 119 59 120 126 278&#xA;86 204 127 300 140 330 7 17 34 82 60 145 25 63 50 124 55 135 5 11 20 47 34&#xA;80 35 86 97 233 149 355 24 58 60 143 78 188 l34 84 -24 19 c-19 16 -39 19&#xA;-120 19 -60 -1 -105 -6 -120 -14 -23 -13 -91 -167 -173 -396 -17 -47 -34 -89&#xA;-38 -95 -4 -5 -13 -28 -20 -50 -7 -22 -16 -44 -20 -50 -4 -5 -34 -77 -65 -160&#xA;-32 -82 -70 -181 -85 -220 -29 -75 -44 -89 -55 -53 -7 21 -148 340 -200 453&#xA;-13 28 -74 165 -135 305 -62 140 -120 264 -131 275 -16 17 -34 20 -102 21 -45&#xA;1 -104 -1 -132 -3z"></path>
<path d="M18810 4443 c-46 -2 -90 -9 -98 -15 -20 -17 -10 -69 28 -158 17 -41&#xA;40 -97 50 -125 11 -27 37 -97 60 -155 23 -58 50 -127 60 -155 10 -27 43 -115&#xA;75 -195 31 -80 65 -167 75 -195 47 -127 111 -270 136 -306 54 -78 197 -179&#xA;253 -179 26 0 52 51 121 235 27 72 63 166 80 210 17 44 45 116 61 160 45 120&#xA;118 305 135 344 14 33 16 33 29 14 8 -11 17 -33 21 -49 7 -31 43 -130 74 -204&#xA;11 -25 51 -135 90 -245 84 -237 108 -286 162 -342 60 -62 142 -115 180 -116&#xA;29 -2 35 3 55 43 28 56 114 256 141 330 12 30 46 116 77 190 31 74 99 239 150&#xA;365 51 127 115 285 144 351 28 67 51 133 51 146 0 41 -17 48 -125 48 -93 0&#xA;-103 -2 -121 -22 -18 -21 -61 -121 -129 -303 -31 -83 -42 -112 -89 -230 -19&#xA;-49 -47 -124 -62 -165 -14 -41 -32 -88 -40 -105 -7 -16 -24 -59 -37 -94 -13&#xA;-36 -28 -66 -33 -68 -5 -1 -40 86 -78 195 -38 108 -72 202 -76 207 -5 6 -12&#xA;26 -18 45 -6 19 -31 94 -57 165 -26 72 -62 175 -81 230 -48 136 -58 145 -179&#xA;145 -118 0 -132 -10 -174 -130 -16 -47 -46 -130 -67 -185 -20 -55 -47 -127&#xA;-59 -160 -12 -33 -36 -96 -52 -140 -17 -44 -52 -136 -78 -205 -26 -69 -51&#xA;-135 -56 -148 -12 -29 -25 -21 -35 21 -3 17 -15 50 -25 72 -10 22 -33 81 -52&#xA;130 -19 50 -49 128 -67 175 -53 138 -160 421 -181 479 -33 93 -42 101 -102 99&#xA;-28 -1 -90 -4 -137 -5z"></path>
<path d="M12170 3947 c-42 -21 -52 -53 -45 -142 9 -124 -21 -115 386 -115&#xA;l348 0 15 22 c21 30 22 195 2 224 -14 18 -31 19 -348 22 -254 2 -339 -1 -358&#xA;-11z"></path>

  </g>
</svg>